HIERARCHY
ROOT Hips
{
	OFFSET	0	0	0
	CHANNELS 6  Xposition Yposition Zposition Xrotation Yrotation Zrotation
	JOINT Spine
	{
		OFFSET	0	7.00908	1.40711
		CHANNELS 3  Xrotation Yrotation Zrotation
		JOINT Spine1
		{
			OFFSET	0	11.9997	-2.14281
			CHANNELS 3  Xrotation Yrotation Zrotation
			JOINT Spine2
			{
				OFFSET	0	9.09621	0.974976
				CHANNELS 3  Xrotation Yrotation Zrotation
				JOINT Spine3
				{
					OFFSET	0	10.8855	3.23564
					CHANNELS 3  Xrotation Yrotation Zrotation
					JOINT Spine4
					{
						OFFSET	0	16.1139	-1.64996
						CHANNELS 3  Xrotation Yrotation Zrotation
						JOINT Neck
						{
							OFFSET	0	7.69267	-5.38915
							CHANNELS 3  Xrotation Yrotation Zrotation
							JOINT Head
							{
								OFFSET	0	9.23549	-2.76422
								CHANNELS 3  Xrotation Yrotation Zrotation
								End Site
								{
									OFFSET	0	19.2638	-0.93212
								}
							}
						}
					}
					JOINT LeftShoulder
					{
						OFFSET	-4.62846	19.5852	-9.23549
						CHANNELS 3  Xrotation Yrotation Zrotation
						JOINT LeftArm
						{
							OFFSET	-10.1082	-2.76422	3.54636
							CHANNELS 3  Xrotation Yrotation Zrotation
							JOINT LeftForeArm
							{
								OFFSET	-30.9178	-1.41114	2.20688
								CHANNELS 3  Xrotation Yrotation Zrotation
								JOINT LeftHand
								{
									OFFSET	-25.989	-1.79599	1.85507
									CHANNELS 3  Xrotation Yrotation Zrotation
									End Site
									{
										OFFSET	-9.4847	-0.655447	0.676963
									}
								}
							}
						}
					}
					JOINT RightShoulder
					{
						OFFSET	4.62846	19.5852	-9.23549
						CHANNELS 3  Xrotation Yrotation Zrotation
						JOINT RightArm
						{
							OFFSET	10.1082	-2.76422	3.54636
							CHANNELS 3  Xrotation Yrotation Zrotation
							JOINT RightForeArm
							{
								OFFSET	30.9178	-1.41114	2.20688
								CHANNELS 3  Xrotation Yrotation Zrotation
								JOINT RightHand
								{
									OFFSET	25.989	-1.79599	1.85507
									CHANNELS 3  Xrotation Yrotation Zrotation
									End Site
									{
										OFFSET	9.4847	-0.655447	0.676963
									}
								}
							}
						}
					}
				}
			}
		}
	}
	JOINT LeftUpLeg
	{
		OFFSET	-9.51492	-3.50454	-0.703555
		CHANNELS 3  Xrotation Yrotation Zrotation
		JOINT LeftLeg
		{
			OFFSET	-2.15663	-42.2584	-0.660591
			CHANNELS 3  Xrotation Yrotation Zrotation
			JOINT LeftFoot
			{
				OFFSET	-2.11138	-38.9194	3.34707
				CHANNELS 3  Xrotation Yrotation Zrotation
				JOINT LeftToeBase
				{
					OFFSET	0	-4.8091	-12.773
					CHANNELS 3  Xrotation Yrotation Zrotation
					End Site
					{
						OFFSET	0	-1.92364	-7.69456
					}
				}
			}
		}
	}
	JOINT RightUpLeg
	{
		OFFSET	9.51492	-3.50454	-0.703555
		CHANNELS 3  Xrotation Yrotation Zrotation
		JOINT RightLeg
		{
			OFFSET	2.15663	-42.2584	-0.660591
			CHANNELS 3  Xrotation Yrotation Zrotation
			JOINT RightFoot
			{
				OFFSET	2.11138	-38.9194	3.34707
				CHANNELS 3  Xrotation Yrotation Zrotation
				JOINT RightToeBase
				{
					OFFSET	0	-4.8091	-12.773
					CHANNELS 3  Xrotation Yrotation Zrotation
					End Site
					{
						OFFSET	0	-1.92364	-7.69456
					}
				}
			}
		}
	}
}
MOTION
Frames: 6
Frame Time: 0.020408
 92.3029 86.5135 48.0923 168.368 69.4606 -174.262 179.992 -179.709 178.4 176.048 -179.418 177.334 175.637 -178.255 177.333 176.305 -179.709 178.4 1.18846 -0.0110601 -0.533119 7.15445 10.2435 4.73826 2.17226 10.1874 2.14198 177.533 -151.73 174.637 19.5917 25.7278 51.1176 104.13 -41.8419 108.113 -0 -11.5373 -15.9859 178.669 -164.405 -177.884 57.9011 -7.16006 -14.4587 108.818 75.5394 -107.468 -0 -4.66644 12.5938 20.6362 -17.4747 -9.73995 150.985 152.878 -175.043 169.68 178.003 -166.92 0.582171 0 0 8.14827 -31.0978 22.4543 146.929 -179.622 176.797 24.8206 -4.21816 -6.73762 0.164548 0 0
 92.012 86.5289 48.2844 167.706 69.7454 -173.696 179.992 -179.721 178.387 176.091 -179.442 177.312 175.679 -178.327 177.311 176.324 -179.721 178.387 1.22379 -0.0114827 -0.537504 7.23444 10.0785 4.47372 2.1913 10.2331 2.06131 177.56 -151.627 174.696 19.5883 26.3891 51.1351 103.687 -41.9162 107.725 -0 -11.5047 -16.1485 178.801 -164.178 -178.101 57.6574 -7.29486 -14.0395 109.885 75.6463 -108.531 -0 -4.4337 12.3728 20.3007 -17.4126 -9.75204 150.726 153.204 -174.819 170.2 178.13 -167.381 0.553551 0 0 7.51952 -30.9909 22.4417 147.536 179.558 176.882 24.8935 -3.93066 -6.40805 0.146255 0 0
 91.571 86.5193 48.6739 166.778 70.3361 -172.988 179.992 -179.699 178.432 176.104 -179.399 177.386 175.664 -178.196 177.385 176.258 -179.699 178.432 1.40614 -0.0128299 -0.522657 7.75542 9.77992 4.13488 2.34434 10.0226 1.94143 177.654 -151.963 174.899 19.106 27.1434 51.5994 103.835 -41.7664 107.955 -0 -11.4158 -16.3259 179.093 -163.543 -178.579 56.8063 -8.16733 -13.4418 111.326 75.7726 -109.752 -0 -4.13366 12.1066 19.7734 -17.9761 -9.46911 150.39 153.225 -174.784 170.894 178.09 -167.136 0.558792 0 0 6.65124 -30.5627 22.6626 148.344 179.001 176.618 24.8978 -3.91293 -6.4061 0.117626 0 0
 91.0164 86.4473 49.1151 165.257 71.1457 -171.346 179.992 -179.722 178.424 176.078 -179.445 177.373 175.631 -178.335 177.372 176.206 -179.722 178.424 1.47303 -0.0135082 -0.525291 7.99002 9.48137 3.79713 2.41027 9.91284 1.82704 177.728 -152.307 175.061 18.3135 28.1374 52.3568 104.282 -41.4991 108.572 -0 -11.3436 -16.5232 179.282 -163.715 -178.873 55.5167 -8.41078 -13.4239 113.092 75.8364 -111.691 -0 -3.79313 11.6291 19.3079 -17.7344 -9.88767 149.298 153.437 -174.389 171.826 177.86 -166.446 0.584933 0 0 5.91489 -30.6999 22.8067 148.939 178.31 176.602 24.7881 -3.83995 -6.84246 0.095826 0 0
 90.4925 86.4147 49.6044 164.021 71.8735 -170.136 179.993 -179.743 178.412 176.06 -179.486 177.354 175.606 -178.458 177.353 176.163 -179.743 178.412 1.53898 -0.0142148 -0.52907 8.19416 9.24543 3.67387 2.47119 9.64084 1.77119 177.851 -152.753 175.328 17.1334 28.7512 53.4602 104.892 -41.1411 109.391 -0 -11.1434 -16.6749 179.388 -163.826 -179.037 54.5685 -8.5085 -13.2441 114.029 75.9972 -112.631 -0 -3.52258 11.2093 19.1569 -17.8929 -9.51002 148.727 153.945 -174.758 172.515 178.137 -167.591 0.532334 0 0 5.12093 -30.497 22.9651 149.74 177.613 176.628 24.6427 -3.70788 -6.98516 0.0724921 0 0
 90.0373 86.3676 50.3042 163.485 72.8608 -169.857 179.994 -179.773 178.458 176.092 -179.546 177.43 175.657 -178.639 177.429 176.221 -179.773 178.458 1.45906 -0.0130899 -0.513902 7.92325 8.98602 3.71858 2.391 9.25764 1.76213 177.882 -153.068 175.396 15.4568 29.3263 54.6454 105.339 -40.8401 110.236 -0 -10.9771 -16.7433 179.509 -163.863 -179.227 53.7493 -8.744 -13.0921 114.592 76.1903 -113.242 -0 -3.3232 10.7668 19.5559 -17.8957 -8.71615 148.185 154.554 -175.227 172.943 178.502 -169.454 0.483535 0 0 4.99727 -29.9521 23.5916 150.268 176.919 176.777 24.5232 -3.63996 -7.3217 0.0508328 0 0
